<svg xmlns="http://www.w3.org/2000/svg" xmlns:xlink="http://www.w3.org/1999/xlink"><defs><clipPath id="clip0_5885_132"><rect width="205" height="62"/></clipPath></defs><symbol id="icon-close" viewBox="0 0 20 20"><g fill="none"><path d="M.293 18.291a1 1 0 101.414 1.414L10 11.413l8.292 8.292a1 1 0 101.414-1.414l-8.292-8.292 8.292-8.292A1 1 0 1018.291.293L9.999 8.585 1.707.293A1 1 0 10.293 1.707L8.585 10 .293 18.291z"/></g></symbol><symbol id="instagram" viewBox="0 0 50 50"><path d="M 16 3 C 8.8324839 3 3 8.8324839 3 16 L 3 34 C 3 41.167516 8.8324839 47 16 47 L 34 47 C 41.167516 47 47 41.167516 47 34 L 47 16 C 47 8.8324839 41.167516 3 34 3 L 16 3 z M 16 5 L 34 5 C 40.086484 5 45 9.9135161 45 16 L 45 34 C 45 40.086484 40.086484 45 34 45 L 16 45 C 9.9135161 45 5 40.086484 5 34 L 5 16 C 5 9.9135161 9.9135161 5 16 5 z M 37 11 A 2 2 0 0 0 35 13 A 2 2 0 0 0 37 15 A 2 2 0 0 0 39 13 A 2 2 0 0 0 37 11 z M 25 14 C 18.936712 14 14 18.936712 14 25 C 14 31.063288 18.936712 36 25 36 C 31.063288 36 36 31.063288 36 25 C 36 18.936712 31.063288 14 25 14 z M 25 16 C 29.982407 16 34 20.017593 34 25 C 34 29.982407 29.982407 34 25 34 C 20.017593 34 16 29.982407 16 25 C 16 20.017593 20.017593 16 25 16 z"/></symbol><symbol id="lifetour" viewBox="0 0 205 62"><g clip-path="url(#clip0_5885_132)"><path d="M22.7109 40.218L28.1507 34.4824L34.3385 40.218H44.9461L28.0827 23.6255L11.3553 40.218H22.7109Z"/><path d="M38.2827 13.5881L30.259 21.7819L35.5628 27.2445L38.2827 24.5132L53.1742 39.3987C49.7743 48.4802 41.0706 54.967 30.8029 54.967C17.6114 54.967 6.93576 44.2467 6.93576 31C7.00376 17.7533 17.6794 7.03304 30.8709 7.03304C42.5665 7.03304 52.3582 15.5683 54.3301 26.6982L61.5379 34.3458C61.6739 33.2533 61.7419 32.0925 61.7419 31C61.7419 22.7379 58.546 14.9537 52.6982 9.0815C46.8504 3.20925 39.0987 0 30.8709 0C22.5752 0 14.8915 3.20925 9.04369 9.0815C3.19589 14.9537 0 22.6696 0 31C0 39.3304 3.19589 47.0463 9.04369 52.9185C14.8915 58.7907 22.6432 62 30.8709 62C39.0987 62 46.8504 58.7907 52.6982 52.9185C56.3021 49.2996 58.886 44.9978 60.3139 40.2863C60.5859 39.467 60.7899 38.5793 60.9939 37.7599L54.7381 31.1366L38.2827 13.5881Z"/><path d="M87.2138 19.9204H91.7535L89.2773 32.4222H96.9351L96.2015 36.0369H84.0039L87.2138 19.9204Z"/><path d="M101.208 19.9204H105.747L102.538 36.0369H97.9979L101.208 19.9204Z"/><path d="M112.806 23.443L112.095 26.9887H119.18L118.469 30.5113H111.408L110.307 36.0369H105.767L108.977 19.9204H121.542L120.831 23.443H112.806Z"/><path d="M127.448 23.443L126.921 26.1598H134.051L133.386 29.5673H126.233L125.659 32.5143H134.074L133.34 36.0369H120.478L123.688 19.9204H136.252L135.541 23.443H127.448Z"/><path d="M141.775 23.5351H136.845L137.579 19.9204H151.955L151.221 23.5351H146.315L143.815 36.0369H139.276L141.775 23.5351Z"/><path d="M158.879 36.3593C157.259 36.3593 155.845 36.06 154.637 35.4613C153.445 34.8627 152.52 34.0262 151.863 32.9518C151.221 31.8773 150.9 30.6494 150.9 29.268C150.9 27.4261 151.32 25.7684 152.161 24.2949C153.017 22.8214 154.202 21.6702 155.715 20.8414C157.243 20.0125 158.978 19.5981 160.919 19.5981C162.54 19.5981 163.946 19.8974 165.138 20.496C166.346 21.0946 167.27 21.9311 167.912 23.0056C168.57 24.08 168.898 25.3079 168.898 26.6893C168.898 28.5312 168.47 30.1889 167.614 31.6624C166.774 33.136 165.589 34.2871 164.061 35.116C162.547 35.9448 160.82 36.3593 158.879 36.3593ZM159.269 32.5834C160.278 32.5834 161.164 32.3301 161.928 31.8236C162.693 31.3171 163.281 30.6417 163.694 29.7975C164.106 28.938 164.313 27.994 164.313 26.9656C164.313 25.8758 163.977 25.0086 163.304 24.364C162.647 23.704 161.722 23.374 160.53 23.374C159.521 23.374 158.634 23.6272 157.87 24.1337C157.106 24.6402 156.517 25.3233 156.105 26.1828C155.692 27.027 155.486 27.9633 155.486 28.9917C155.486 30.0815 155.814 30.9564 156.471 31.6164C157.144 32.2611 158.076 32.5834 159.269 32.5834Z"/><path d="M177.421 36.3593C176.03 36.3593 174.83 36.129 173.821 35.6686C172.812 35.1927 172.04 34.5174 171.505 33.6425C170.97 32.7676 170.703 31.7392 170.703 30.5573C170.703 30.0661 170.764 29.4982 170.886 28.8536L172.675 19.9204H177.214L175.449 28.7845C175.357 29.245 175.311 29.6671 175.311 30.0508C175.311 31.7392 176.198 32.5834 177.971 32.5834C178.934 32.5834 179.69 32.2918 180.241 31.7085C180.806 31.1099 181.227 30.1352 181.502 28.7845L183.267 19.9204H187.738L185.927 29.0608C184.949 33.9264 182.113 36.3593 177.421 36.3593Z"/><path d="M204.157 25.0547C204.157 26.5282 203.768 27.8022 202.988 28.8766C202.209 29.9357 201.116 30.7108 199.709 31.202L202.438 36.0369H197.692L195.307 31.7545H193.015L192.166 36.0369H187.627L190.836 19.9204H197.692C199.74 19.9204 201.33 20.3732 202.461 21.2788C203.592 22.1844 204.157 23.443 204.157 25.0547ZM199.572 25.4921C199.572 24.8321 199.35 24.3409 198.907 24.0186C198.464 23.6809 197.845 23.5121 197.05 23.5121H194.665L193.702 28.2319H196.408C197.417 28.2319 198.196 27.994 198.746 27.5182C199.297 27.0424 199.572 26.367 199.572 25.4921Z"/><path d="M87.0264 51.2331C86.4734 51.2331 85.971 51.1103 85.5191 50.8647C85.0725 50.6138 84.7216 50.2721 84.4664 49.8396C84.2166 49.4072 84.0916 48.9214 84.0916 48.3821C84.0916 47.8429 84.2166 47.3571 84.4664 46.9247C84.7216 46.4922 85.0725 46.1532 85.5191 45.9076C85.971 45.6567 86.4734 45.5312 87.0264 45.5312C87.5793 45.5312 88.0764 45.654 88.5177 45.8996C88.9643 46.1452 89.3152 46.4869 89.5704 46.9247C89.8255 47.3571 89.9531 47.8429 89.9531 48.3821C89.9531 48.9214 89.8255 49.4099 89.5704 49.8477C89.3152 50.2801 88.9643 50.6191 88.5177 50.8647C88.0764 51.1103 87.5793 51.2331 87.0264 51.2331ZM87.0264 50.7045C87.4676 50.7045 87.8664 50.6058 88.2226 50.4082C88.5788 50.2053 88.8579 49.9277 89.06 49.5754C89.262 49.2177 89.363 48.8199 89.363 48.3821C89.363 47.9444 89.262 47.5493 89.06 47.1969C88.8579 46.8392 88.5788 46.5616 88.2226 46.3641C87.8664 46.1612 87.4676 46.0598 87.0264 46.0598C86.5851 46.0598 86.1837 46.1612 85.8222 46.3641C85.466 46.5616 85.1842 46.8392 84.9768 47.1969C84.7748 47.5493 84.6738 47.9444 84.6738 48.3821C84.6738 48.8199 84.7748 49.2177 84.9768 49.5754C85.1842 49.9277 85.466 50.2053 85.8222 50.4082C86.1837 50.6058 86.5851 50.7045 87.0264 50.7045Z"/><path d="M93.387 46.9407C93.7804 46.9407 94.1367 47.0314 94.4556 47.213C94.7746 47.3891 95.0245 47.6401 95.2053 47.9657C95.386 48.2914 95.4764 48.6624 95.4764 49.0789C95.4764 49.5006 95.386 49.8743 95.2053 50.2C95.0245 50.5257 94.7746 50.7793 94.4556 50.9608C94.142 51.137 93.7858 51.2251 93.387 51.2251C93.0467 51.2251 92.7384 51.1557 92.4619 51.0168C92.1908 50.8727 91.9675 50.6645 91.792 50.3922V52.7386H91.2258V46.9727H91.7681V47.8056C91.9382 47.5279 92.1615 47.3144 92.438 47.1649C92.7198 47.0154 93.0361 46.9407 93.387 46.9407ZM93.3471 50.7205C93.6395 50.7205 93.9054 50.6538 94.1446 50.5203C94.3839 50.3815 94.5699 50.1867 94.7029 49.9357C94.8411 49.6848 94.9102 49.3992 94.9102 49.0789C94.9102 48.7585 94.8411 48.4756 94.7029 48.23C94.5699 47.9791 94.3839 47.7842 94.1446 47.6454C93.9054 47.5066 93.6395 47.4372 93.3471 47.4372C93.0494 47.4372 92.7809 47.5066 92.5417 47.6454C92.3077 47.7842 92.1217 47.9791 91.9834 48.23C91.8505 48.4756 91.7841 48.7585 91.7841 49.0789C91.7841 49.3992 91.8505 49.6848 91.9834 49.9357C92.1217 50.1867 92.3077 50.3815 92.5417 50.5203C92.7809 50.6538 93.0494 50.7205 93.3471 50.7205Z"/><path d="M99.6596 47.4772H97.2592V51.185H96.693V46.9727H99.6596V47.4772Z"/><path d="M101.921 46.9407C102.469 46.9407 102.889 47.0795 103.181 47.3571C103.474 47.6294 103.62 48.0351 103.62 48.5743V51.185H103.078V50.5283C102.95 50.7472 102.761 50.9181 102.512 51.0409C102.267 51.1637 101.975 51.2251 101.634 51.2251C101.166 51.2251 100.794 51.1129 100.518 50.8887C100.241 50.6645 100.103 50.3682 100.103 49.9998C100.103 49.6421 100.231 49.3538 100.486 49.1349C100.746 48.916 101.158 48.8066 101.722 48.8066H103.054V48.5503C103.054 48.1873 102.953 47.9123 102.751 47.7255C102.549 47.5333 102.254 47.4372 101.866 47.4372C101.6 47.4372 101.345 47.4826 101.1 47.5733C100.855 47.6587 100.645 47.7789 100.47 47.9337L100.215 47.5093C100.427 47.3277 100.683 47.1889 100.98 47.0928C101.278 46.9914 101.592 46.9407 101.921 46.9407ZM101.722 50.7766C102.041 50.7766 102.315 50.7045 102.543 50.5604C102.772 50.4109 102.942 50.1973 103.054 49.9197V49.231H101.738C101.02 49.231 100.661 49.4819 100.661 49.9838C100.661 50.2294 100.754 50.4242 100.94 50.5684C101.127 50.7072 101.387 50.7766 101.722 50.7766Z"/><path d="M105.127 46.9727H105.694V48.8386H108.333V46.9727H108.899V51.185H108.333V49.3271H105.694V51.185H105.127V46.9727Z"/><path d="M110.509 46.9727H111.075V50.3201L113.874 46.9727H114.377V51.185H113.81V47.8376L111.019 51.185H110.509V46.9727Z"/><path d="M117.955 48.9908C118.253 49.0602 118.482 49.1803 118.641 49.3511C118.806 49.522 118.888 49.7302 118.888 49.9758C118.888 50.2214 118.803 50.4403 118.633 50.6325C118.468 50.8246 118.242 50.9741 117.955 51.0809C117.668 51.1824 117.352 51.2331 117.006 51.2331C116.703 51.2331 116.405 51.1904 116.113 51.1049C115.821 51.0142 115.565 50.8834 115.347 50.7125L115.539 50.2881C115.73 50.4322 115.954 50.5444 116.209 50.6244C116.464 50.7045 116.722 50.7446 116.982 50.7446C117.37 50.7446 117.687 50.6725 117.931 50.5283C118.181 50.3789 118.306 50.1787 118.306 49.9277C118.306 49.7035 118.205 49.53 118.003 49.4072C117.801 49.2791 117.525 49.215 117.174 49.215H116.456V48.7986H117.142C117.455 48.7986 117.708 48.7398 117.899 48.6224C118.091 48.4996 118.186 48.3368 118.186 48.1339C118.186 47.9097 118.077 47.7335 117.86 47.6054C117.647 47.4772 117.368 47.4132 117.022 47.4132C116.57 47.4132 116.124 47.5279 115.682 47.7575L115.523 47.3171C116.023 47.0555 116.541 46.9247 117.078 46.9247C117.397 46.9247 117.684 46.9727 117.939 47.0688C118.2 47.1596 118.402 47.2904 118.545 47.4612C118.694 47.632 118.769 47.8296 118.769 48.0538C118.769 48.2674 118.694 48.4569 118.545 48.6224C118.402 48.7879 118.205 48.9107 117.955 48.9908Z"/><path d="M121.617 46.9407C122.165 46.9407 122.585 47.0795 122.877 47.3571C123.17 47.6294 123.316 48.0351 123.316 48.5743V51.185H122.773V50.5283C122.646 50.7472 122.457 50.9181 122.207 51.0409C121.963 51.1637 121.67 51.2251 121.33 51.2251C120.862 51.2251 120.49 51.1129 120.214 50.8887C119.937 50.6645 119.799 50.3682 119.799 49.9998C119.799 49.6421 119.926 49.3538 120.182 49.1349C120.442 48.916 120.854 48.8066 121.418 48.8066H122.75V48.5503C122.75 48.1873 122.649 47.9123 122.446 47.7255C122.244 47.5333 121.949 47.4372 121.561 47.4372C121.295 47.4372 121.04 47.4826 120.796 47.5733C120.551 47.6587 120.341 47.7789 120.166 47.9337L119.91 47.5093C120.123 47.3277 120.378 47.1889 120.676 47.0928C120.974 46.9914 121.287 46.9407 121.617 46.9407ZM121.418 50.7766C121.737 50.7766 122.011 50.7045 122.239 50.5604C122.468 50.4109 122.638 50.1973 122.75 49.9197V49.231H121.434C120.716 49.231 120.357 49.4819 120.357 49.9838C120.357 50.2294 120.45 50.4242 120.636 50.5684C120.822 50.7072 121.083 50.7766 121.418 50.7766Z"/><path d="M129.193 50.6885V52.2421H128.659V51.185H124.823V46.9727H125.389V50.6885H127.949V46.9727H128.515V50.6885H129.193Z"/><path d="M130.275 46.9727H130.841V50.3201L133.64 46.9727H134.142V51.185H133.576V47.8376L130.785 51.185H130.275V46.9727Z"/><path d="M138.987 46.9727V51.185H138.469V49.7916H136.993L136.02 51.185H135.406L136.451 49.7115C136.127 49.6208 135.877 49.4659 135.701 49.247C135.526 49.0281 135.438 48.7505 135.438 48.4142C135.438 47.9444 135.598 47.5867 135.917 47.3411C136.236 47.0955 136.672 46.9727 137.225 46.9727H138.987ZM136.012 48.4302C136.012 49.0548 136.408 49.3672 137.201 49.3672H138.469V47.4772H137.24C136.422 47.4772 136.012 47.7949 136.012 48.4302Z"/><path d="M146.453 46.9727V51.185H145.887V47.4772H143.255V51.185H142.689V46.9727H146.453Z"/><path d="M149.793 51.2251C149.389 51.2251 149.025 51.1343 148.7 50.9528C148.376 50.7659 148.121 50.5097 147.935 50.184C147.749 49.8583 147.656 49.4899 147.656 49.0789C147.656 48.6678 147.749 48.2994 147.935 47.9737C148.121 47.6481 148.376 47.3945 148.7 47.213C149.025 47.0314 149.389 46.9407 149.793 46.9407C150.197 46.9407 150.561 47.0314 150.885 47.213C151.21 47.3945 151.462 47.6481 151.643 47.9737C151.829 48.2994 151.922 48.6678 151.922 49.0789C151.922 49.4899 151.829 49.8583 151.643 50.184C151.462 50.5097 151.21 50.7659 150.885 50.9528C150.561 51.1343 150.197 51.2251 149.793 51.2251ZM149.793 50.7205C150.091 50.7205 150.356 50.6538 150.59 50.5203C150.83 50.3815 151.016 50.1867 151.149 49.9357C151.282 49.6848 151.348 49.3992 151.348 49.0789C151.348 48.7585 151.282 48.4729 151.149 48.222C151.016 47.9711 150.83 47.7789 150.59 47.6454C150.356 47.5066 150.091 47.4372 149.793 47.4372C149.495 47.4372 149.227 47.5066 148.987 47.6454C148.753 47.7789 148.567 47.9711 148.429 48.222C148.296 48.4729 148.23 48.7585 148.23 49.0789C148.23 49.3992 148.296 49.6848 148.429 49.9357C148.567 50.1867 148.753 50.3815 148.987 50.5203C149.227 50.6538 149.495 50.7205 149.793 50.7205Z"/><path d="M155.608 51.185L154.276 49.4232L152.936 51.185H152.298L153.957 49.0228L152.378 46.9727H153.016L154.276 48.6224L155.536 46.9727H156.158L154.579 49.0228L156.254 51.185H155.608Z"/><path d="M158.765 51.2251C158.361 51.2251 157.996 51.1343 157.672 50.9528C157.348 50.7659 157.093 50.5097 156.906 50.184C156.72 49.8583 156.627 49.4899 156.627 49.0789C156.627 48.6678 156.72 48.2994 156.906 47.9737C157.093 47.6481 157.348 47.3945 157.672 47.213C157.996 47.0314 158.361 46.9407 158.765 46.9407C159.169 46.9407 159.533 47.0314 159.857 47.213C160.181 47.3945 160.434 47.6481 160.615 47.9737C160.801 48.2994 160.894 48.6678 160.894 49.0789C160.894 49.4899 160.801 49.8583 160.615 50.184C160.434 50.5097 160.181 50.7659 159.857 50.9528C159.533 51.1343 159.169 51.2251 158.765 51.2251ZM158.765 50.7205C159.062 50.7205 159.328 50.6538 159.562 50.5203C159.801 50.3815 159.987 50.1867 160.12 49.9357C160.253 49.6848 160.32 49.3992 160.32 49.0789C160.32 48.7585 160.253 48.4729 160.12 48.222C159.987 47.9711 159.801 47.7789 159.562 47.6454C159.328 47.5066 159.062 47.4372 158.765 47.4372C158.467 47.4372 158.198 47.5066 157.959 47.6454C157.725 47.7789 157.539 47.9711 157.401 48.222C157.268 48.4729 157.202 48.7585 157.202 49.0789C157.202 49.3992 157.268 49.6848 157.401 49.9357C157.539 50.1867 157.725 50.3815 157.959 50.5203C158.198 50.6538 158.467 50.7205 158.765 50.7205Z"/><path d="M166.172 50.6885V52.2021H165.637V51.185H161.881V52.2021H161.347V50.6885H161.586C161.868 50.6725 162.059 50.4643 162.16 50.0639C162.261 49.6635 162.331 49.1029 162.368 48.3821L162.424 46.9727H165.518V50.6885H166.172ZM162.886 48.4142C162.86 49.0121 162.809 49.506 162.735 49.8957C162.66 50.2801 162.527 50.5444 162.336 50.6885H164.952V47.4772H162.934L162.886 48.4142Z"/><path d="M169.006 51.2251C168.602 51.2251 168.238 51.1343 167.913 50.9528C167.589 50.7659 167.334 50.5097 167.148 50.184C166.962 49.8583 166.868 49.4899 166.868 49.0789C166.868 48.6678 166.962 48.2994 167.148 47.9737C167.334 47.6481 167.589 47.3945 167.913 47.213C168.238 47.0314 168.602 46.9407 169.006 46.9407C169.41 46.9407 169.774 47.0314 170.098 47.213C170.423 47.3945 170.675 47.6481 170.856 47.9737C171.042 48.2994 171.135 48.6678 171.135 49.0789C171.135 49.4899 171.042 49.8583 170.856 50.184C170.675 50.5097 170.423 50.7659 170.098 50.9528C169.774 51.1343 169.41 51.2251 169.006 51.2251ZM169.006 50.7205C169.303 50.7205 169.569 50.6538 169.803 50.5203C170.042 50.3815 170.229 50.1867 170.361 49.9357C170.494 49.6848 170.561 49.3992 170.561 49.0789C170.561 48.7585 170.494 48.4729 170.361 48.222C170.229 47.9711 170.042 47.7789 169.803 47.6454C169.569 47.5066 169.303 47.4372 169.006 47.4372C168.708 47.4372 168.44 47.5066 168.2 47.6454C167.966 47.7789 167.78 47.9711 167.642 48.222C167.509 48.4729 167.443 48.7585 167.443 49.0789C167.443 49.3992 167.509 49.6848 167.642 49.9357C167.78 50.1867 167.966 50.3815 168.2 50.5203C168.44 50.6538 168.708 50.7205 169.006 50.7205Z"/><path d="M175.017 49.0068C175.586 49.1403 175.87 49.4846 175.87 50.0398C175.87 50.4082 175.734 50.6912 175.463 50.8887C175.192 51.0863 174.788 51.185 174.251 51.185H172.345V46.9727H174.195C174.674 46.9727 175.049 47.0661 175.32 47.253C175.591 47.4398 175.727 47.7068 175.727 48.0538C175.727 48.2834 175.663 48.4809 175.535 48.6464C175.413 48.8066 175.24 48.9267 175.017 49.0068ZM172.895 48.8466H174.155C174.48 48.8466 174.727 48.7852 174.897 48.6624C175.073 48.5396 175.16 48.3608 175.16 48.1259C175.16 47.891 175.073 47.7148 174.897 47.5973C174.727 47.4799 174.48 47.4212 174.155 47.4212H172.895V48.8466ZM174.227 50.7366C174.589 50.7366 174.86 50.6778 175.041 50.5604C175.221 50.4429 175.312 50.2587 175.312 50.0078C175.312 49.7569 175.229 49.5727 175.065 49.4552C174.9 49.3325 174.639 49.2711 174.283 49.2711H172.895V50.7366H174.227Z"/><path d="M181.956 49.0068C182.525 49.1403 182.809 49.4846 182.809 50.0398C182.809 50.4082 182.674 50.6912 182.402 50.8887C182.131 51.0863 181.727 51.185 181.19 51.185H179.284V46.9727H181.134C181.613 46.9727 181.988 47.0661 182.259 47.253C182.53 47.4398 182.666 47.7068 182.666 48.0538C182.666 48.2834 182.602 48.4809 182.474 48.6464C182.352 48.8066 182.179 48.9267 181.956 49.0068ZM179.835 48.8466H181.095C181.419 48.8466 181.666 48.7852 181.836 48.6624C182.012 48.5396 182.099 48.3608 182.099 48.1259C182.099 47.891 182.012 47.7148 181.836 47.5973C181.666 47.4799 181.419 47.4212 181.095 47.4212H179.835V48.8466ZM181.166 50.7366C181.528 50.7366 181.799 50.6778 181.98 50.5604C182.161 50.4429 182.251 50.2587 182.251 50.0078C182.251 49.7569 182.168 49.5727 182.004 49.4552C181.839 49.3325 181.578 49.2711 181.222 49.2711H179.835V50.7366H181.166Z"/><path d="M189.19 47.4772H186.79V51.185H186.223V46.9727H189.19V47.4772Z"/><path d="M191.544 51.2251C191.14 51.2251 190.776 51.1343 190.452 50.9528C190.127 50.7659 189.872 50.5097 189.686 50.184C189.5 49.8583 189.407 49.4899 189.407 49.0789C189.407 48.6678 189.5 48.2994 189.686 47.9737C189.872 47.6481 190.127 47.3945 190.452 47.213C190.776 47.0314 191.14 46.9407 191.544 46.9407C191.948 46.9407 192.312 47.0314 192.637 47.213C192.961 47.3945 193.214 47.6481 193.394 47.9737C193.58 48.2994 193.673 48.6678 193.673 49.0789C193.673 49.4899 193.58 49.8583 193.394 50.184C193.214 50.5097 192.961 50.7659 192.637 50.9528C192.312 51.1343 191.948 51.2251 191.544 51.2251ZM191.544 50.7205C191.842 50.7205 192.108 50.6538 192.342 50.5203C192.581 50.3815 192.767 50.1867 192.9 49.9357C193.033 49.6848 193.099 49.3992 193.099 49.0789C193.099 48.7585 193.033 48.4729 192.9 48.222C192.767 47.9711 192.581 47.7789 192.342 47.6454C192.108 47.5066 191.842 47.4372 191.544 47.4372C191.246 47.4372 190.978 47.5066 190.739 47.6454C190.505 47.7789 190.319 47.9711 190.18 48.222C190.047 48.4729 189.981 48.7585 189.981 49.0789C189.981 49.3992 190.047 49.6848 190.18 49.9357C190.319 50.1867 190.505 50.3815 190.739 50.5203C190.978 50.6538 191.246 50.7205 191.544 50.7205Z"/><path d="M197.045 46.9407C197.438 46.9407 197.794 47.0314 198.113 47.213C198.432 47.3891 198.682 47.6401 198.863 47.9657C199.044 48.2914 199.134 48.6624 199.134 49.0789C199.134 49.5006 199.044 49.8743 198.863 50.2C198.682 50.5257 198.432 50.7793 198.113 50.9608C197.8 51.137 197.443 51.2251 197.045 51.2251C196.704 51.2251 196.396 51.1557 196.12 51.0168C195.848 50.8727 195.625 50.6645 195.45 50.3922V52.7386H194.884V46.9727H195.426V47.8056C195.596 47.5279 195.819 47.3144 196.096 47.1649C196.377 47.0154 196.694 46.9407 197.045 46.9407ZM197.005 50.7205C197.297 50.7205 197.563 50.6538 197.802 50.5203C198.042 50.3815 198.228 50.1867 198.361 49.9357C198.499 49.6848 198.568 49.3992 198.568 49.0789C198.568 48.7585 198.499 48.4756 198.361 48.23C198.228 47.9791 198.042 47.7842 197.802 47.6454C197.563 47.5066 197.297 47.4372 197.005 47.4372C196.707 47.4372 196.439 47.5066 196.199 47.6454C195.965 47.7842 195.779 47.9791 195.641 48.23C195.508 48.4756 195.442 48.7585 195.442 49.0789C195.442 49.3992 195.508 49.6848 195.641 49.9357C195.779 50.1867 195.965 50.3815 196.199 50.5203C196.439 50.6538 196.707 50.7205 197.005 50.7205Z"/><path d="M202.113 48.4622C202.639 48.4676 203.041 48.585 203.317 48.8146C203.594 49.0442 203.732 49.3752 203.732 49.8076C203.732 50.2561 203.583 50.6004 203.285 50.8407C202.988 51.0809 202.562 51.1984 202.009 51.193L200.351 51.185V46.9727H200.917V48.4462L202.113 48.4622ZM204.434 46.9727H205V51.185H204.434V46.9727ZM201.978 50.7606C202.366 50.7659 202.658 50.6885 202.855 50.5283C203.057 50.3628 203.158 50.1226 203.158 49.8076C203.158 49.498 203.059 49.2684 202.863 49.1189C202.666 48.9694 202.371 48.892 201.978 48.8867L200.917 48.8706V50.7446L201.978 50.7606Z"/></g></symbol><symbol id="supergym" viewBox="0 0 119 23"><g fill="none"><path d="M5.768 22.252C4.592 22.252 3.572 22.072 2.708 21.712C1.844 21.352 1.184 20.716 0.728 19.804C0.296 18.892 0.08 17.608 0.08 15.952V14.728C0.656 14.728 1.244 14.728 1.844 14.728C2.444 14.728 3.032 14.728 3.608 14.728V16.24C3.608 17.248 3.704 18.028 3.896 18.58C4.088 19.132 4.352 19.516 4.688 19.732C5.024 19.924 5.408 20.02 5.84 20.02C6.536 20.02 7.088 19.792 7.496 19.336C7.928 18.856 8.144 17.968 8.144 16.672C8.144 15.712 8 14.992 7.712 14.512C7.424 14.032 6.968 13.648 6.344 13.36C5.744 13.048 4.964 12.7 4.004 12.316C3.212 11.956 2.528 11.536 1.952 11.056C1.376 10.576 0.944 9.964 0.656 9.22C0.368 8.476 0.224 7.552 0.224 6.448C0.224 5.104 0.392 4.012 0.728 3.172C1.088 2.308 1.688 1.684 2.528 1.3C3.368 0.891999 4.496 0.688 5.912 0.688C7.736 0.688 9.128 1.108 10.088 1.948C11.048 2.764 11.528 3.964 11.528 5.548V8.032C10.976 8.032 10.412 8.032 9.836 8.032C9.284 8.032 8.72 8.032 8.144 8.032V6.556C8.144 5.452 7.964 4.66 7.604 4.18C7.268 3.676 6.716 3.424 5.948 3.424C5.156 3.424 4.58 3.664 4.22 4.144C3.884 4.6 3.716 5.332 3.716 6.34C3.716 7.204 3.884 7.876 4.22 8.356C4.556 8.812 4.988 9.172 5.516 9.436C6.068 9.7 6.632 9.94 7.208 10.156C8.288 10.564 9.164 10.984 9.836 11.416C10.508 11.848 11 12.424 11.312 13.144C11.624 13.864 11.78 14.884 11.78 16.204C11.78 17.716 11.528 18.916 11.024 19.804C10.544 20.668 9.848 21.292 8.936 21.676C8.048 22.06 6.992 22.252 5.768 22.252ZM20.9164 22.432C20.1004 22.432 19.3444 22.372 18.6484 22.252C17.9524 22.132 17.3524 21.892 16.8484 21.532C16.3444 21.172 15.9484 20.632 15.6604 19.912C15.3724 19.192 15.2284 18.22 15.2284 16.996V0.723999H18.6844V17.896C18.6844 18.544 18.7804 19.048 18.9724 19.408C19.1884 19.744 19.4644 19.972 19.8004 20.092C20.1364 20.212 20.5084 20.272 20.9164 20.272C21.3244 20.272 21.6964 20.212 22.0324 20.092C22.3684 19.972 22.6324 19.744 22.8244 19.408C23.0404 19.048 23.1484 18.544 23.1484 17.896V0.723999H26.5684V16.96C26.5684 18.184 26.4244 19.168 26.1364 19.912C25.8724 20.632 25.4884 21.172 24.9844 21.532C24.4804 21.892 23.8804 22.132 23.1844 22.252C22.4884 22.372 21.7324 22.432 20.9164 22.432ZM30.822 22V0.723999H38.022C39.366 0.723999 40.398 1.024 41.118 1.624C41.838 2.224 42.198 3.112 42.198 4.288V8.068C42.198 8.98 42.078 9.832 41.838 10.624C41.622 11.392 41.19 12.016 40.542 12.496C39.918 12.976 39.006 13.216 37.806 13.216H34.422V22H30.822ZM34.422 11.272H36.618C37.338 11.272 37.878 10.996 38.238 10.444C38.598 9.868 38.778 8.944 38.778 7.672V5.764C38.778 4.636 38.622 3.832 38.31 3.352C37.998 2.872 37.566 2.632 37.014 2.632H34.422V11.272ZM45.6045 22V0.723999H55.1805V3.172H49.2045V9.616H54.1365V12.316H49.2045V19.624H55.1805V22H45.6045ZM58.4534 22V0.723999H65.7974C67.1414 0.723999 68.1734 1.024 68.8934 1.624C69.6374 2.224 70.0094 3.112 70.0094 4.288V7.672C70.0094 8.848 69.6854 9.808 69.0374 10.552C68.3894 11.272 67.4294 11.668 66.1574 11.74C66.9734 11.812 67.5494 12.076 67.8854 12.532C68.2454 12.988 68.5694 13.696 68.8574 14.656L70.9094 22H67.0934L65.4014 14.908C65.2334 14.308 65.0414 13.78 64.8254 13.324C64.6094 12.868 64.2614 12.64 63.7814 12.64H62.0174V22H58.4534ZM62.0174 10.228H64.3214C65.1614 10.228 65.7494 10.012 66.0854 9.58C66.4454 9.148 66.6254 8.488 66.6254 7.6V4.9C66.6254 4.108 66.4574 3.532 66.1214 3.172C65.8094 2.812 65.3174 2.632 64.6454 2.632H62.0174V10.228ZM78.6132 22.396C77.7972 22.396 77.0292 22.264 76.3092 22C75.5892 21.76 75.0012 21.268 74.5452 20.524C74.1132 19.756 73.8972 18.616 73.8972 17.104V5.224C73.8972 3.928 74.1372 2.944 74.6172 2.272C75.0972 1.576 75.7692 1.108 76.6332 0.868C77.4972 0.603999 78.4932 0.471998 79.6212 0.471998C80.7492 0.471998 81.7452 0.603999 82.6092 0.868C83.4732 1.132 84.1452 1.612 84.6252 2.308C85.1292 2.98 85.3812 3.952 85.3812 5.224V8.104H82.0332V5.08C82.0332 4.36 81.9252 3.82 81.7092 3.46C81.5172 3.1 81.2412 2.86 80.8812 2.74C80.5452 2.62 80.1372 2.56 79.6572 2.56C79.2252 2.56 78.8292 2.62 78.4692 2.74C78.1092 2.86 77.8212 3.1 77.6052 3.46C77.4132 3.82 77.3172 4.36 77.3172 5.08V17.86C77.3172 18.58 77.4132 19.12 77.6052 19.48C77.8212 19.84 78.1092 20.08 78.4692 20.2C78.8292 20.32 79.2252 20.38 79.6572 20.38C80.3532 20.38 80.9172 20.176 81.3492 19.768C81.8052 19.336 82.0332 18.7 82.0332 17.86V13.54H79.9092V11.56H85.3812V22H82.7892L82.6092 20.2C82.5612 20.296 82.5012 20.404 82.4292 20.524C82.3572 20.62 82.2972 20.704 82.2492 20.776C81.9612 21.208 81.5292 21.592 80.9532 21.928C80.4012 22.24 79.6212 22.396 78.6132 22.396ZM91.9112 22V12.856L87.9512 0.723999H91.3712L93.6032 7.996L93.7832 9.112L93.9992 7.996L96.3392 0.723999H99.5432L95.3672 13.036V22H91.9112ZM102.449 22V0.723999H106.697L110.261 15.844L113.861 0.723999H118.073V22H115.013V5.584L111.449 22H109.073L105.509 5.584V22H102.449Z" fill="white"/></g></symbol><symbol id="telegram" viewBox="0 0 50 50"><path d="M 25 2 C 12.309288 2 2 12.309297 2 25 C 2 37.690703 12.309288 48 25 48 C 37.690712 48 48 37.690703 48 25 C 48 12.309297 37.690712 2 25 2 z M 25 4 C 36.609833 4 46 13.390175 46 25 C 46 36.609825 36.609833 46 25 46 C 13.390167 46 4 36.609825 4 25 C 4 13.390175 13.390167 4 25 4 z M 34.087891 14.035156 C 33.403891 14.035156 32.635328 14.193578 31.736328 14.517578 C 30.340328 15.020578 13.920734 21.992156 12.052734 22.785156 C 10.984734 23.239156 8.9960938 24.083656 8.9960938 26.097656 C 8.9960938 27.432656 9.7783594 28.3875 11.318359 28.9375 C 12.146359 29.2325 14.112906 29.828578 15.253906 30.142578 C 15.737906 30.275578 16.25225 30.34375 16.78125 30.34375 C 17.81625 30.34375 18.857828 30.085859 19.673828 29.630859 C 19.666828 29.798859 19.671406 29.968672 19.691406 30.138672 C 19.814406 31.188672 20.461875 32.17625 21.421875 32.78125 C 22.049875 33.17725 27.179312 36.614156 27.945312 37.160156 C 29.021313 37.929156 30.210813 38.335938 31.382812 38.335938 C 33.622813 38.335938 34.374328 36.023109 34.736328 34.912109 C 35.261328 33.299109 37.227219 20.182141 37.449219 17.869141 C 37.600219 16.284141 36.939641 14.978953 35.681641 14.376953 C 35.210641 14.149953 34.672891 14.035156 34.087891 14.035156 z M 34.087891 16.035156 C 34.362891 16.035156 34.608406 16.080641 34.816406 16.181641 C 35.289406 16.408641 35.530031 16.914688 35.457031 17.679688 C 35.215031 20.202687 33.253938 33.008969 32.835938 34.292969 C 32.477938 35.390969 32.100813 36.335938 31.382812 36.335938 C 30.664813 36.335938 29.880422 36.08425 29.107422 35.53125 C 28.334422 34.97925 23.201281 31.536891 22.488281 31.087891 C 21.863281 30.693891 21.201813 29.711719 22.132812 28.761719 C 22.899812 27.979719 28.717844 22.332938 29.214844 21.835938 C 29.584844 21.464938 29.411828 21.017578 29.048828 21.017578 C 28.923828 21.017578 28.774141 21.070266 28.619141 21.197266 C 28.011141 21.694266 19.534781 27.366266 18.800781 27.822266 C 18.314781 28.124266 17.56225 28.341797 16.78125 28.341797 C 16.44825 28.341797 16.111109 28.301891 15.787109 28.212891 C 14.659109 27.901891 12.750187 27.322734 11.992188 27.052734 C 11.263188 26.792734 10.998047 26.543656 10.998047 26.097656 C 10.998047 25.463656 11.892938 25.026 12.835938 24.625 C 13.831938 24.202 31.066062 16.883437 32.414062 16.398438 C 33.038062 16.172438 33.608891 16.035156 34.087891 16.035156 z"/></symbol><symbol id="vk" viewBox="0 0 50 50"><path d="M 9 4 C 6.2504839 4 4 6.2504839 4 9 L 4 41 C 4 43.749516 6.2504839 46 9 46 L 41 46 C 43.749516 46 46 43.749516 46 41 L 46 9 C 46 6.2504839 43.749516 4 41 4 L 9 4 z M 9 6 L 41 6 C 42.668484 6 44 7.3315161 44 9 L 44 41 C 44 42.668484 42.668484 44 41 44 L 9 44 C 7.3315161 44 6 42.668484 6 41 L 6 9 C 6 7.3315161 7.3315161 6 9 6 z M 23.396484 15.992188 C 22.338993 15.989762 21.396053 16.048857 20.552734 16.462891 A 1.0001 1.0001 0 0 0 20.550781 16.464844 C 20.139648 16.667406 19.849872 16.924692 19.619141 17.230469 C 19.503775 17.383357 19.385584 17.520601 19.322266 17.869141 C 19.290606 18.04341 19.272826 18.325815 19.455078 18.630859 C 19.637334 18.935904 20.003807 19.109362 20.238281 19.140625 C 20.401166 19.162305 20.768822 19.318796 20.802734 19.365234 A 1.0001 1.0001 0 0 0 20.804688 19.369141 C 20.804932 19.369474 20.947263 19.741144 20.988281 20.072266 C 21.029301 20.403387 21.027344 20.671875 21.027344 20.671875 A 1.0001 1.0001 0 0 0 21.029297 20.751953 C 21.029297 20.751953 21.087228 21.619511 21.048828 22.515625 C 21.033528 22.872778 20.987338 23.190517 20.939453 23.474609 C 20.583342 23.081448 20.058613 22.36946 19.300781 21.056641 C 18.460091 19.599445 17.791016 18.292969 17.791016 18.292969 C 17.755878 18.179145 17.631609 17.825025 17.146484 17.46875 C 16.616155 17.077877 16.103516 17.019531 16.103516 17.019531 A 1.0001 1.0001 0 0 0 15.908203 17 L 11.966797 17.001953 C 11.966797 17.001953 11.73048 16.988284 11.447266 17.027344 C 11.164051 17.066404 10.737588 17.098194 10.326172 17.585938 A 1.0001 1.0001 0 0 0 10.324219 17.587891 C 9.9565329 18.027228 9.9787721 18.512818 10.023438 18.787109 C 10.068098 19.061401 10.167969 19.269531 10.167969 19.269531 A 1.0001 1.0001 0 0 0 10.173828 19.28125 C 10.173828 19.28125 13.397717 26.059497 17.041016 30.050781 C 19.6867 32.948797 22.40224 32.998047 24.642578 32.998047 L 26.314453 32.998047 C 26.74128 32.998047 27.127368 32.981367 27.554688 32.732422 C 27.982005 32.483474 28.269531 31.87742 28.269531 31.457031 C 28.269531 31.016509 28.335301 30.670207 28.416016 30.492188 C 28.472777 30.36699 28.517715 30.321903 28.587891 30.285156 C 28.602729 30.294567 28.593147 30.289094 28.634766 30.318359 C 28.801234 30.435424 29.076122 30.702288 29.375 31.035156 C 29.972755 31.700892 30.651262 32.614044 31.5625 33.240234 C 32.215313 33.689229 32.831963 33.888608 33.300781 33.960938 C 33.594505 34.006254 33.82263 33.997525 33.984375 33.984375 L 37.71875 34 A 1.0001 1.0001 0 0 0 37.785156 33.998047 C 37.785156 33.998047 38.428614 34.005547 39.097656 33.605469 C 39.432178 33.405406 39.82672 33.026107 39.955078 32.472656 C 40.083436 31.919206 39.922118 31.34574 39.607422 30.822266 A 1.0001 1.0001 0 0 0 39.607422 30.820312 C 39.662072 30.910912 39.557942 30.724742 39.451172 30.550781 C 39.344399 30.376818 39.18937 30.142398 38.966797 29.851562 C 38.521651 29.269893 37.808682 28.45591 36.65625 27.382812 A 1.0001 1.0001 0 0 0 36.654297 27.382812 C 36.06897 26.838224 35.673719 26.452649 35.511719 26.238281 C 35.349719 26.023913 35.402852 26.136522 35.414062 26.082031 C 35.436492 25.97305 36.138984 24.959653 37.568359 23.050781 C 38.437249 21.888888 39.04704 21.016572 39.449219 20.291016 C 39.851397 19.565459 40.141394 18.937091 39.939453 18.167969 A 1.0001 1.0001 0 0 0 39.9375 18.164062 C 39.847853 17.826442 39.603007 17.515245 39.351562 17.345703 C 39.100119 17.176162 38.861732 17.109853 38.648438 17.068359 C 38.221848 16.985372 37.849591 17 37.503906 17 C 36.779144 17 33.563492 17.025391 33.298828 17.025391 C 32.986098 17.025391 32.468982 17.167635 32.240234 17.304688 C 31.665127 17.650771 31.5 18.105469 31.5 18.105469 A 1.0001 1.0001 0 0 0 31.470703 18.164062 C 31.470703 18.164062 30.807378 19.634988 29.953125 21.087891 C 29.08775 22.561617 28.448441 23.264508 28.0625 23.589844 C 28.05188 23.531984 28.053705 23.578967 28.046875 23.498047 C 28.012285 23.086503 28.050781 22.517823 28.050781 21.962891 C 28.050781 20.468376 28.177461 19.422397 28.109375 18.498047 C 28.075335 18.035872 27.989721 17.559283 27.685547 17.121094 C 27.381373 16.682905 26.875241 16.398229 26.375 16.277344 C 26.074849 16.204944 25.732712 16.016631 24.494141 16.003906 A 1.0001 1.0001 0 0 0 24.492188 16.003906 C 24.113419 16.000121 23.748982 15.992996 23.396484 15.992188 z M 24.472656 18.003906 C 25.568624 18.015166 25.295621 18.075496 25.904297 18.222656 C 26.093056 18.268266 26.04733 18.268009 26.042969 18.261719 C 26.038569 18.255419 26.094024 18.358529 26.115234 18.646484 C 26.157654 19.222384 26.050781 20.367405 26.050781 21.962891 C 26.050781 22.397958 25.998284 23.01881 26.052734 23.666016 C 26.107134 24.313221 26.267657 25.143803 27.041016 25.644531 C 27.407604 25.882157 27.833256 25.897136 28.197266 25.806641 C 28.561275 25.716141 28.891511 25.527659 29.238281 25.25 C 29.931821 24.694683 30.705387 23.757462 31.677734 22.101562 C 32.586549 20.555862 33.247595 19.08397 33.269531 19.035156 C 33.273824 19.031713 33.278168 19.02935 33.283203 19.025391 C 33.295692 19.025528 33.282755 19.025391 33.298828 19.025391 C 33.672165 19.025391 36.828668 19 37.503906 19 C 37.661534 19 37.718912 19.009502 37.84375 19.013672 C 37.80982 19.126937 37.84755 19.054692 37.699219 19.322266 C 37.388147 19.883459 36.814907 20.717455 35.966797 21.851562 C 34.573172 23.712692 33.7094 24.441966 33.455078 25.677734 C 33.327917 26.295619 33.566234 26.980509 33.916016 27.443359 C 34.265797 27.90621 34.707295 28.302745 35.292969 28.847656 C 36.377537 29.85756 37.013803 30.59128 37.378906 31.068359 C 37.561458 31.306899 37.676539 31.479197 37.748047 31.595703 C 37.819557 31.712209 37.801887 31.699918 37.894531 31.853516 C 37.955521 31.95573 37.933049 31.893348 37.943359 31.923828 C 37.823459 31.957628 37.678197 31.99832 37.669922 32 L 33.992188 31.984375 A 1.0001 1.0001 0 0 0 33.794922 32.003906 C 33.794922 32.003906 33.804122 32.014725 33.607422 31.984375 C 33.410689 31.954025 33.097805 31.868892 32.695312 31.591797 C 32.20955 31.257987 31.529526 30.441233 30.863281 29.699219 C 30.530159 29.328212 30.197938 28.971919 29.785156 28.681641 C 29.372375 28.391362 28.754711 28.118405 28.087891 28.328125 C 27.395667 28.545486 26.856849 29.085706 26.59375 29.666016 C 26.397906 30.097982 26.382045 30.54919 26.351562 30.998047 C 26.318372 31.000547 26.356563 30.998047 26.314453 30.998047 L 24.642578 30.998047 C 22.370916 30.998047 20.757894 31.155156 18.517578 28.701172 C 15.504086 25.39985 12.743119 19.907011 12.292969 19.001953 L 15.761719 19 C 15.822689 19.0234 15.953174 19.072395 15.960938 19.078125 A 1.0001 1.0001 0 0 0 15.964844 19.082031 C 15.83805 18.989351 15.970703 19.119141 15.970703 19.119141 A 1.0001 1.0001 0 0 0 16.011719 19.207031 C 16.011719 19.207031 16.699049 20.549836 17.568359 22.056641 C 18.421075 23.533829 19.042453 24.456619 19.642578 25.066406 C 19.942641 25.3713 20.245541 25.615827 20.650391 25.753906 C 21.05524 25.891985 21.578005 25.841335 21.929688 25.648438 C 22.648115 25.255167 22.744641 24.675101 22.861328 24.167969 C 22.978179 23.660124 23.024698 23.119131 23.046875 22.601562 C 23.089915 21.596958 23.029041 20.727518 23.025391 20.673828 C 23.025613 20.654998 23.030186 20.292437 22.972656 19.828125 C 22.913756 19.352676 22.848067 18.771361 22.417969 18.185547 L 22.416016 18.183594 C 22.413016 18.179494 22.40925 18.179781 22.40625 18.175781 C 22.974999 18.094211 23.461654 17.993803 24.472656 18.003906 z M 33.294922 18.984375 L 33.28125 19.015625 C 33.279135 19.016836 33.27981 19.014183 33.277344 19.015625 C 33.281572 19.007565 33.294922 18.984375 33.294922 18.984375 z"/></symbol></svg>